<?xml version="1.0" standalone="no"?>
<!DOCTYPE svg PUBLIC "-//W3C//DTD SVG 20010904//EN"
 "http://www.w3.org/TR/2001/REC-SVG-20010904/DTD/svg10.dtd">
<svg version="1.0" xmlns="http://www.w3.org/2000/svg"
 width="289.000000pt" height="174.000000pt" viewBox="0 0 289.000000 174.000000"
 preserveAspectRatio="xMidYMid meet">

<g transform="translate(0.000000,174.000000) scale(0.100000,-0.100000)"
fill="#000000" stroke="none">
<path d="M1391 1679 c1 -51 -2 -64 -23 -87 -41 -44 -61 -81 -68 -127 -5 -34
-3 -45 8 -50 8 -3 12 -8 9 -11 -3 -3 -14 -1 -24 5 -15 8 -20 7 -20 -4 0 -8 3
-12 7 -10 4 2 23 0 42 -5 26 -8 46 -6 78 5 57 20 63 12 6 -9 -62 -24 -71 -38
-43 -63 12 -11 34 -23 50 -27 16 -4 27 -13 27 -24 0 -14 4 -12 20 8 11 14 20
30 20 37 0 6 10 19 23 28 l22 17 -25 -7 c-17 -4 -21 -3 -12 3 8 5 13 13 13 18
-1 5 5 9 11 9 7 0 17 -21 22 -48 8 -47 9 -48 40 -41 38 8 33 4 37 34 2 15 -4
34 -16 46 -11 11 -25 29 -30 38 -9 16 -15 17 -54 6 -24 -6 -45 -9 -48 -7 -2 3
18 10 44 17 48 12 49 14 50 52 7 163 249 171 279 9 4 -20 12 -39 18 -43 7 -5
6 -8 -4 -8 -9 0 -24 -16 -35 -37 -21 -37 -79 -72 -122 -73 -13 0 -23 -4 -23
-9 0 -5 28 -9 63 -10 34 -1 79 -5 101 -10 24 -6 48 -6 64 0 31 12 54 5 46 -15
-4 -10 3 -17 20 -22 15 -3 65 -31 113 -60 47 -30 88 -53 90 -50 2 2 -5 19 -16
37 -22 36 -27 98 -11 129 9 17 4 23 -37 44 -27 14 -44 25 -40 26 4 0 26 -9 48
-21 l41 -20 23 21 c13 12 40 25 60 30 98 22 186 -57 171 -154 -10 -57 -30 -85
-82 -107 -51 -23 -57 -34 -15 -24 17 3 32 2 36 -4 3 -6 2 -11 -4 -11 -6 0 -8
-7 -4 -17 5 -14 10 -12 29 12 12 15 27 26 34 23 18 -6 22 -38 5 -38 -16 0 -45
-43 -45 -67 0 -15 -2 -16 -10 -3 -6 10 -10 11 -10 3 0 -7 -4 -13 -10 -13 -5 0
-10 12 -10 28 0 23 -4 27 -31 29 -23 2 -28 -1 -21 -10 5 -7 13 -23 17 -37 7
-21 5 -23 -6 -13 -21 16 -64 20 -81 5 -20 -16 -108 -25 -108 -10 0 6 -2 9 -5
6 -3 -3 6 -35 20 -72 29 -77 30 -86 11 -111 -14 -19 -14 -19 -36 0 -24 21 -60
94 -60 120 0 9 -4 24 -9 34 -6 10 -6 33 -2 54 8 32 1 47 -23 47 -1 0 -1 -14 2
-30 3 -25 1 -29 -12 -24 -9 3 -16 15 -16 25 0 11 -7 22 -15 25 -8 4 -15 12
-15 19 0 7 -10 12 -24 11 -16 -1 -22 -6 -18 -16 4 -12 1 -11 -15 3 -11 9 -22
15 -24 12 -3 -2 -5 5 -5 16 0 12 5 18 13 15 7 -3 13 -2 13 2 0 14 -69 42 -98
41 -18 -1 -21 -3 -9 -6 10 -3 16 -11 14 -18 -3 -7 8 -22 24 -34 33 -24 34 -45
3 -48 -10 -1 -30 -4 -44 -7 -21 -5 -21 -4 5 8 26 13 27 21 2 17 -5 -1 -6 3 -3
8 4 5 2 12 -3 15 -5 3 -12 -1 -15 -9 -4 -13 -10 -14 -26 -5 -11 6 -20 9 -21 8
-9 -34 -7 -47 9 -50 15 -3 14 -6 -6 -26 -19 -19 -21 -26 -11 -38 9 -11 8 -14
-3 -14 -8 0 -22 -6 -32 -13 -14 -10 -15 -18 -7 -39 8 -23 7 -27 -12 -32 -12
-3 -24 0 -28 5 -4 7 -9 8 -13 1 -8 -14 14 -73 25 -66 5 3 7 10 4 15 -4 5 -1 9
5 9 7 0 9 -7 6 -15 -3 -9 1 -18 9 -21 7 -3 11 -12 8 -20 -3 -9 1 -14 12 -14 9
0 14 -4 10 -10 -3 -5 -11 -7 -18 -4 -7 2 -22 -4 -32 -16 -10 -11 -29 -20 -42
-20 -14 0 -23 -6 -23 -15 0 -8 7 -15 15 -15 7 0 19 -8 25 -17 10 -16 11 -16 6
-1 -4 15 16 43 25 34 2 -2 22 -7 44 -10 22 -4 51 -9 65 -13 14 -3 37 -5 52 -6
20 0 28 -6 30 -21 2 -16 14 -23 52 -31 27 -6 51 -16 53 -21 6 -17 -47 -115
-65 -121 -10 -3 -29 -17 -44 -31 -15 -13 -37 -30 -50 -36 -14 -7 -24 -22 -26
-40 -3 -26 -1 -28 20 -23 13 4 32 7 43 7 17 0 17 2 5 10 -11 7 -6 8 17 4 23
-5 42 0 67 16 20 12 36 26 36 31 0 4 7 6 15 3 8 -4 15 -1 15 6 0 6 5 8 10 5 6
-3 10 -1 10 5 0 6 4 8 10 5 6 -4 7 1 3 11 -5 14 -3 16 12 10 11 -4 25 0 36 10
41 37 16 -5 -29 -49 -37 -37 -55 -47 -73 -44 -13 2 -18 2 -11 0 18 -7 14 -21
-8 -28 -11 -4 -18 -10 -15 -15 3 -5 0 -12 -6 -16 -8 -4 -9 -3 -5 5 5 8 -12 11
-64 10 -40 -1 -67 -5 -60 -9 7 -4 -15 -6 -49 -4 -39 2 -60 0 -56 -6 3 -6 2
-10 -3 -10 -8 0 -22 22 -22 35 0 2 12 3 28 3 39 -2 62 11 62 35 0 20 0 20 -23
-1 -13 -12 -31 -22 -40 -22 -17 0 -47 47 -47 75 0 17 21 20 37 4 7 -7 13 -7
17 -1 3 6 -7 21 -23 34 -30 26 -27 42 14 66 17 10 18 11 3 12 -10 0 -18 5 -18
11 0 5 5 7 10 4 6 -3 14 -4 20 0 13 8 1 35 -17 35 -8 0 -11 5 -8 10 3 5 1 10
-5 10 -7 0 -10 -6 -7 -13 3 -7 -4 -19 -15 -26 -11 -7 -18 -18 -15 -24 3 -7 -3
-13 -13 -13 -10 0 -16 4 -14 8 3 4 -3 19 -12 33 -10 15 -12 25 -5 25 6 0 11 7
11 15 0 8 -6 15 -14 15 -8 0 -17 6 -20 13 -5 9 -7 9 -12 -1 -5 -10 -9 -9 -20
6 -8 12 -23 18 -43 17 -17 -1 -31 2 -31 7 0 17 -36 7 -59 -17 -13 -14 -27 -25
-32 -25 -5 0 -9 -9 -9 -20 0 -11 -4 -20 -8 -20 -5 0 -8 -10 -7 -23 1 -12 0
-26 -2 -30 -7 -12 -39 44 -48 81 -7 36 -41 45 -52 15 -4 -10 -11 -21 -16 -24
-5 -3 -2 -9 7 -12 9 -4 16 -2 16 4 0 5 6 4 14 -3 9 -8 11 -17 5 -24 -5 -6 -5
-15 -1 -19 4 -5 0 -6 -9 -3 -10 4 -20 -4 -30 -26 l-14 -31 -3 27 c-2 15 1 35
7 46 9 16 6 18 -22 14 l-32 -5 25 22 c19 17 22 24 11 28 -7 3 -22 14 -32 24
-19 19 -33 11 -24 -13 3 -8 -6 -25 -20 -38 -14 -13 -25 -18 -25 -11 0 6 7 14
15 17 9 4 15 19 15 42 0 33 -1 34 -18 19 -10 -10 -25 -17 -33 -17 -8 0 -23 -7
-33 -15 -26 -20 -42 -19 -22 1 22 22 20 51 -4 57 -13 3 -24 -1 -30 -14 -6 -10
-23 -25 -38 -33 -15 -9 -20 -16 -12 -16 8 0 -3 -12 -25 -25 -44 -27 -55 -30
-55 -14 0 5 5 7 10 4 6 -3 10 -2 10 3 0 5 10 14 23 20 20 9 17 11 -21 11 -51
1 -93 21 -119 56 l-19 26 4 -42 c3 -27 1 -39 -6 -35 -6 3 -8 15 -5 26 4 16 -1
23 -26 33 -17 6 -31 18 -32 27 0 10 -2 11 -6 3 -8 -21 -45 5 -41 29 2 12 -3
23 -10 25 -7 3 -10 -1 -6 -10 9 -23 -17 -33 -33 -12 -7 11 -13 13 -13 7 0 -7
-4 -12 -10 -12 -5 0 -10 9 -10 20 0 11 -4 20 -10 20 -5 0 -10 -7 -10 -16 0 -9
-6 -14 -12 -11 -7 2 -13 14 -13 25 0 24 -52 62 -83 62 -10 0 -27 7 -38 15 -12
8 -24 12 -26 9 -9 -9 -30 26 -25 40 6 15 41 12 65 -7 16 -12 17 14 1 30 -16
16 -1 35 22 28 40 -13 17 11 -33 34 -60 27 -110 72 -89 79 7 2 31 -1 52 -8 33
-11 42 -11 52 0 10 10 9 12 -6 7 -10 -4 -15 -3 -12 2 8 14 -6 20 -84 31 -81
11 -100 21 -124 61 -9 16 -29 35 -44 41 -15 7 -30 15 -33 19 -3 3 -22 9 -43
12 l-37 6 0 -211 c0 -181 2 -214 16 -229 17 -19 12 -55 -5 -44 -7 3 -10 -139
-11 -390 l0 -395 1445 0 1445 0 0 354 0 355 -60 22 c-33 12 -63 26 -66 31 -3
4 13 1 35 -8 23 -9 48 -14 56 -10 8 3 19 -2 24 -12 7 -12 10 84 11 298 0 225
-3 311 -11 300 -8 -11 -9 -7 -3 15 4 17 9 112 11 213 l4 182 -751 0 -750 0 1
-61z m522 -246 c-7 -2 -19 -2 -25 0 -7 3 -2 5 12 5 14 0 19 -2 13 -5z m44 -9
c-3 -3 -12 -4 -19 -1 -8 3 -5 6 6 6 11 1 17 -2 13 -5z m903 -283 c0 -13 -26
-32 -33 -24 -8 7 11 33 24 33 5 0 9 -4 9 -9z m-373 -43 c-2 -50 -23 -62 -29
-16 -6 39 -1 58 17 58 10 0 13 -13 12 -42z m293 -9 c0 -5 -4 -9 -10 -9 -5 0
-10 7 -10 16 0 8 5 12 10 9 6 -3 10 -10 10 -16z m-2720 -37 c0 -5 -7 -17 -15
-28 -14 -18 -14 -17 -4 9 12 27 19 34 19 19z m2779 -42 l23 -35 -26 30 c-14
17 -26 34 -26 39 0 11 0 11 29 -34z m-1078 0 c5 0 9 -4 9 -10 0 -16 -26 -12
-41 7 -12 15 -12 16 4 10 10 -4 23 -7 28 -7z m679 -36 c0 -8 -4 -12 -10 -9 -5
3 -10 10 -10 16 0 5 5 9 10 9 6 0 10 -7 10 -16z m-602 -37 c12 -13 26 -37 32
-54 23 -65 -27 -153 -87 -153 -70 0 -115 67 -97 147 4 21 8 44 7 51 -1 7 1 11
4 8 3 -3 15 1 27 9 32 23 89 19 114 -8z m587 -17 c-3 -5 -14 -10 -23 -10 -15
0 -15 2 -2 10 20 13 33 13 25 0z m206 -21 c31 -22 59 -76 59 -114 0 -36 -23
-77 -60 -109 -58 -48 -160 -30 -200 37 -77 126 80 272 201 186z m-2581 5 c0
-8 -4 -12 -10 -9 -5 3 -10 10 -10 16 0 5 5 9 10 9 6 0 10 -7 10 -16z m339 -81
c13 -10 18 -9 28 3 6 9 16 13 22 9 16 -9 13 -44 -4 -61 -8 -9 -15 -24 -15 -35
0 -10 -5 -19 -11 -19 -6 0 -9 -7 -5 -15 3 -8 0 -15 -6 -15 -7 0 -6 -5 2 -15 7
-8 18 -15 26 -15 7 0 19 -9 27 -20 8 -11 16 -18 19 -15 2 3 5 -2 5 -9 0 -35
-102 55 -103 90 0 11 -3 51 -7 89 -4 39 -4 63 0 55 3 -8 13 -20 22 -27z m-149
1 c8 -1 20 -3 25 -4 6 -1 -1 -6 -14 -11 -26 -10 -141 9 -141 24 0 7 73 2 130
-9z m1430 12 c0 -3 -4 -8 -10 -11 -5 -3 -10 -1 -10 4 0 6 5 11 10 11 6 0 10
-2 10 -4z m-1324 -51 c-4 -14 -1 -25 6 -27 6 -2 9 -10 6 -18 -2 -8 -11 -2 -25
19 -17 28 -21 30 -27 15 -4 -10 0 -24 10 -35 20 -23 10 -43 -15 -29 -23 12
-32 54 -18 84 8 17 17 21 40 18 24 -4 28 -8 23 -27z m1584 15 c13 -8 13 -13
-2 -40 -14 -25 -15 -30 -3 -30 8 0 15 -4 15 -10 0 -5 -16 -10 -35 -10 -40 0
-44 9 -15 35 27 24 27 48 0 40 -15 -5 -18 -3 -14 9 7 18 31 21 54 6z m-1865
-40 c18 -36 19 -40 2 -40 -13 0 -37 40 -37 60 0 20 20 9 35 -20z m430 0 c3 -5
-3 -10 -14 -10 -11 0 -23 5 -26 10 -3 6 3 10 14 10 11 0 23 -4 26 -10z m70
-30 c3 -5 2 -10 -4 -10 -5 0 -13 5 -16 10 -3 6 -2 10 4 10 5 0 13 -4 16 -10z
m-218 -46 c-3 -3 -12 -4 -19 -1 -8 3 -5 6 6 6 11 1 17 -2 13 -5z m189 -27 c9
3 14 -2 14 -14 0 -10 5 -24 10 -31 7 -9 7 -9 -2 -2 -9 7 -16 4 -25 -12 l-12
-23 -1 23 c0 13 -6 22 -15 22 -16 0 -19 9 -9 35 4 11 10 13 17 6 5 -5 16 -7
23 -4z m108 -2 c-4 -8 -10 -12 -15 -9 -11 6 -2 24 11 24 5 0 7 -7 4 -15z
m-257 -22 c-3 -3 -11 -2 -17 2 -9 6 -9 10 1 16 14 8 27 -7 16 -18z m-47 -3
c-19 -13 -30 -13 -30 0 0 6 10 10 23 10 18 0 19 -2 7 -10z m-93 -35 c-9 -7
-16 -14 -14 -16 1 -2 -3 1 -9 8 -6 7 -14 10 -17 6 -4 -3 -7 -2 -7 4 0 13 28
25 41 17 5 -3 9 1 10 8 0 10 2 9 6 -1 3 -8 -2 -20 -10 -26z m50 19 c-3 -3 -12
-4 -19 -1 -8 3 -5 6 6 6 11 1 17 -2 13 -5z m654 -17 c-10 -9 -11 -8 -5 6 3 10
9 15 12 12 3 -3 0 -11 -7 -18z m-516 3 c3 -5 2 -10 -4 -10 -5 0 -13 5 -16 10
-3 6 -2 10 4 10 5 0 13 -4 16 -10z m390 0 c-3 -5 2 -10 12 -10 15 -1 14 -3 -5
-13 -12 -7 -19 -17 -15 -22 4 -4 2 -5 -5 -1 -8 5 -23 -1 -39 -15 l-25 -24 7
24 7 24 -28 -20 c-34 -24 -94 -55 -94 -49 0 2 15 13 33 24 17 11 59 36 91 56
64 39 71 41 61 26z m-490 -19 c-3 -6 -13 -11 -21 -11 -8 0 -12 5 -9 10 4 6 11
8 16 5 5 -4 9 -1 9 6 0 7 3 10 6 6 3 -3 3 -10 -1 -16z m325 3 c0 -8 -4 -12
-10 -9 -5 3 -10 10 -10 16 0 5 5 9 10 9 6 0 10 -7 10 -16z m-51 -8 c10 -12 8
-13 -9 -9 -25 7 -37 23 -17 23 8 0 20 -6 26 -14z m362 -5 c14 -1 33 -7 42 -13
15 -11 9 -13 -35 -14 -29 0 -82 -4 -118 -7 l-65 -7 43 16 c23 9 42 19 42 24 0
4 15 6 33 4 17 -1 44 -3 58 -3z m-670 -18 c12 -16 12 -17 -1 -7 -8 6 -22 14
-30 17 -13 5 -12 6 1 6 9 1 23 -7 30 -16z m64 -21 c-3 -3 -11 0 -18 7 -9 10
-8 11 6 5 10 -3 15 -9 12 -12z m-200 -2 c-3 -5 -14 -10 -23 -9 -14 0 -13 2 3
9 27 11 27 11 20 0z m300 -6 c19 -16 19 -16 -5 -9 -31 9 -50 25 -29 25 7 0 23
-8 34 -16z m690 -2 c-3 -3 -11 0 -18 7 -9 10 -8 11 6 5 10 -3 15 -9 12 -12z
m1195 3 c-7 -8 -18 -15 -24 -15 -6 0 -2 7 8 15 25 19 32 19 16 0z m-393 -27
c-3 -7 -5 -2 -5 12 0 14 2 19 5 13 2 -7 2 -19 0 -25z m-1088 12 c15 0 51 -41
51 -58 0 -12 -6 -9 -18 11 -9 16 -29 31 -44 34 -16 3 -28 10 -28 15 0 6 7 7
16 4 9 -3 19 -6 23 -6z m167 -16 c-4 -13 -1 -24 7 -27 6 -3 -5 -4 -25 -3 -41
1 -46 7 -23 29 8 8 12 16 10 19 -2 2 5 4 16 4 16 0 19 -5 15 -22z m84 -39 c5
-6 -1 -10 -16 -10 -13 0 -24 2 -25 5 -5 31 -4 48 3 44 4 -3 11 3 16 13 6 14 8
12 10 -12 2 -16 7 -34 12 -40z m394 34 c-10 -4 -26 -8 -34 -8 -12 0 -11 3 3
14 11 7 26 11 35 8 13 -6 13 -8 -4 -14z m508 -1 c-7 -7 -12 -8 -12 -2 0 14 12
26 19 19 2 -3 -1 -11 -7 -17z m-821 -5 c12 -16 12 -17 -2 -6 -9 7 -19 10 -22
6 -4 -3 -7 -1 -7 5 0 17 16 15 31 -5z m-752 -49 c-8 -10 -15 -11 -30 -1 -22
14 -24 28 -6 46 17 17 53 -25 36 -45z m2306 46 c-3 -5 -12 -10 -18 -10 -7 0
-6 4 3 10 19 12 23 12 15 0z m-2161 -6 c9 -3 16 -13 16 -21 0 -12 -3 -13 -13
-4 -8 6 -17 8 -20 4 -4 -3 -7 1 -7 10 0 19 2 20 24 11z m831 -5 c11 -17 2 -18
-19 -3 -17 12 -17 14 -4 14 9 0 20 -5 23 -11z m-1155 -6 c-8 -3 -36 -14 -62
-24 -27 -10 -48 -14 -48 -9 0 10 83 39 110 39 13 -1 13 -1 0 -6z m433 -10 c-7
-2 -19 -2 -25 0 -7 3 -2 5 12 5 14 0 19 -2 13 -5z m762 -13 c3 -5 1 -10 -4
-10 -6 0 -11 5 -11 10 0 6 2 10 4 10 3 0 8 -4 11 -10z m-1095 -9 c0 -10 -35
-21 -65 -21 -20 1 -20 1 -1 15 22 16 66 20 66 6z m122 -23 c-8 -8 -9 -4 -5 13
4 13 8 18 11 10 2 -7 -1 -18 -6 -23z m868 2 c0 -5 -5 -10 -11 -10 -5 0 -7 5
-4 10 3 6 8 10 11 10 2 0 4 -4 4 -10z m-116 -12 c-3 -5 -9 -6 -14 -3 -5 3 -11
1 -15 -5 -3 -5 -12 -10 -18 -10 -17 1 19 27 37 27 8 0 13 -4 10 -9z m278 -5
c10 -9 18 -20 18 -25 0 -16 -18 -8 -34 17 -19 29 -11 33 16 8z m998 -3 c8 -5
11 -10 5 -10 -5 0 -17 5 -25 10 -8 5 -10 10 -5 10 6 0 17 -5 25 -10z m-558
-40 c-23 -22 -32 -25 -32 -12 0 5 10 14 23 20 32 15 33 14 9 -8z m-912 -20 c0
-5 -2 -10 -4 -10 -3 0 -8 5 -11 10 -3 6 -1 10 4 10 6 0 11 -4 11 -10z m-383
-6 c-3 -3 -12 -4 -19 -1 -8 3 -5 6 6 6 11 1 17 -2 13 -5z m-122 -44 c3 -5 -3
-10 -15 -10 -12 0 -30 -5 -41 -10 -13 -8 -19 -7 -19 0 0 21 64 38 75 20z
m1275 -20 c-8 -5 -19 -10 -25 -10 -5 0 -3 5 5 10 8 5 20 10 25 10 6 0 3 -5 -5
-10z m430 -50 c-11 -11 -23 -20 -27 -20 -3 0 2 9 12 20 10 11 22 20 27 20 4 0
-1 -9 -12 -20z m-385 0 c4 -6 -6 -10 -22 -10 -22 0 -25 2 -13 10 19 12 27 12
35 0z m-964 -9 c16 25 10 -9 -7 -42 -20 -39 -27 -32 -18 17 4 22 9 33 12 25 4
-11 6 -11 13 0z m1273 -66 c-35 -38 -47 -44 -38 -20 4 9 0 15 -7 15 -16 1 18
23 39 26 8 2 16 5 20 8 3 3 8 6 12 6 4 0 -7 -16 -26 -35z m-324 0 c0 -8 -2
-15 -4 -15 -2 0 -6 7 -10 15 -3 8 -1 15 4 15 6 0 10 -7 10 -15z"/>
<path d="M1747 902 c-26 -28 -22 -97 5 -116 29 -20 34 -20 58 4 26 26 27 90 2
113 -24 22 -45 21 -65 -1z m4 -55 c-10 -9 -11 -8 -5 6 3 10 9 15 12 12 3 -3 0
-11 -7 -18z"/>
<path d="M2466 879 c-85 -74 -41 -206 71 -216 125 -11 188 128 96 214 -29 28
-42 33 -83 33 -41 0 -55 -5 -84 -31z m94 -29 c0 -11 -7 -20 -15 -20 -15 0 -21
21 -8 33 12 13 23 7 23 -13z m38 -22 c-6 -17 -36 -34 -45 -24 -4 4 1 14 11 22
24 17 39 18 34 2z m-83 -8 c4 -6 11 -7 17 -4 7 4 8 2 4 -4 -4 -7 -2 -12 4 -12
7 0 9 -7 6 -16 -5 -13 -2 -15 15 -11 11 3 34 -2 50 -12 25 -15 27 -20 16 -36
-11 -15 -17 -16 -36 -5 -12 6 -29 9 -36 6 -16 -6 -95 23 -95 36 0 4 16 8 35 8
19 0 35 5 35 10 0 6 -6 10 -14 10 -17 0 -38 24 -29 33 9 10 21 8 28 -3z"/>
<path d="M1645 1590 c-11 -4 -31 -20 -45 -35 -34 -36 -36 -123 -4 -156 l22
-21 16 25 c12 17 23 23 36 20 11 -3 20 0 20 6 0 6 -19 11 -47 11 -45 0 -46 -1
-29 -19 13 -14 14 -21 5 -27 -7 -4 -10 -3 -6 3 4 6 0 16 -8 23 -19 16 -19 25
3 77 12 32 23 43 38 43 12 0 24 7 28 15 7 19 30 19 46 1 6 -8 21 -16 32 -18
13 -2 25 -16 34 -43 19 -55 19 -55 -31 -55 -33 0 -45 -4 -45 -15 0 -8 3 -14 8
-14 18 3 32 -2 32 -11 0 -5 -16 -10 -35 -10 -28 0 -35 -4 -35 -20 0 -25 37
-27 80 -5 79 41 79 179 0 220 -31 16 -83 19 -115 5z"/>
<path d="M1656 1515 c-3 -8 -1 -15 4 -15 6 0 10 7 10 15 0 8 -2 15 -4 15 -2 0
-6 -7 -10 -15z"/>
<path d="M1625 1510 c-3 -5 -1 -10 4 -10 6 0 11 5 11 10 0 6 -2 10 -4 10 -3 0
-8 -4 -11 -10z"/>
<path d="M1688 1483 c7 -3 16 -2 19 1 4 3 -2 6 -13 5 -11 0 -14 -3 -6 -6z"/>
<path d="M1610 1459 c0 -5 5 -7 10 -4 6 3 10 8 10 11 0 2 -4 4 -10 4 -5 0 -10
-5 -10 -11z"/>
<path d="M1640 1460 c0 -5 5 -10 10 -10 6 0 10 5 10 10 0 6 -4 10 -10 10 -5 0
-10 -4 -10 -10z"/>
<path d="M1680 1460 c0 -5 7 -10 15 -10 8 0 15 5 15 10 0 6 -7 10 -15 10 -8 0
-15 -4 -15 -10z"/>
<path d="M1730 1460 c0 -5 5 -10 10 -10 6 0 10 5 10 10 0 6 -4 10 -10 10 -5 0
-10 -4 -10 -10z"/>
<path d="M1770 1460 c0 -5 5 -10 10 -10 6 0 10 5 10 10 0 6 -4 10 -10 10 -5 0
-10 -4 -10 -10z"/>
<path d="M2196 1369 c-32 -25 -56 -69 -56 -104 0 -23 25 -85 34 -85 2 0 3 20
2 44 -4 70 37 142 59 106 3 -5 0 -7 -9 -4 -11 4 -13 0 -9 -15 4 -17 8 -19 19
-10 11 9 14 6 14 -16 0 -17 5 -25 13 -22 6 2 12 13 12 25 0 12 5 23 10 24 10
3 26 -48 17 -56 -3 -3 0 -6 6 -6 15 0 16 46 2 55 -5 3 -10 11 -10 16 0 6 4 8
9 5 5 -3 12 1 15 10 5 14 8 14 21 0 18 -18 19 -30 2 -23 -9 3 -12 -5 -9 -29 2
-19 8 -34 13 -34 5 0 9 -9 9 -19 0 -33 17 -33 29 0 15 44 -2 101 -40 133 -40
34 -113 36 -153 5z"/>
<path d="M1766 1281 c-4 -5 3 -7 15 -4 19 5 20 4 10 -16 -8 -15 -9 -27 -1 -41
9 -17 14 -18 30 -7 22 13 25 29 10 58 -11 19 -54 26 -64 10z"/>
<path d="M1537 1273 c-10 -9 -9 -73 1 -73 12 0 38 34 44 58 5 18 2 22 -16 22
-13 0 -26 -3 -29 -7z"/>
<path d="M1930 1237 c0 -33 15 -50 37 -43 15 5 19 1 18 -16 0 -13 -4 -29 -8
-35 -8 -13 8 -52 21 -54 74 -8 117 -4 133 12 23 23 24 32 2 51 -28 25 -124 79
-165 94 -37 13 -38 12 -38 -9z"/>
<path d="M2225 1241 c-3 -5 -1 -12 5 -16 5 -3 10 1 10 9 0 18 -6 21 -15 7z"/>
<path d="M2230 1180 c0 -11 -5 -20 -12 -20 -27 0 2 -10 43 -15 37 -4 51 -1 77
19 39 29 28 36 -54 36 -47 0 -54 -2 -54 -20z"/>
<path d="M1880 1124 c0 -8 5 -12 10 -9 6 3 10 10 10 16 0 5 -4 9 -10 9 -5 0
-10 -7 -10 -16z"/>
<path d="M426 1083 c-4 -8 -13 -13 -21 -9 -8 3 -15 1 -15 -5 0 -6 9 -13 21
-16 12 -3 27 -22 36 -44 8 -22 19 -39 24 -39 5 0 9 -6 9 -12 1 -19 77 -104 86
-96 4 5 0 16 -8 25 -15 17 -22 42 -19 71 2 21 27 13 39 -13 15 -33 22 -31 50
8 14 21 22 48 22 75 0 37 -3 42 -27 48 -14 4 -34 2 -43 -4 -13 -8 -24 -7 -41
2 -14 7 -30 11 -37 8 -6 -2 -12 0 -12 5 0 16 -58 13 -64 -4z"/>
<path d="M1660 1071 c0 -5 5 -13 10 -16 6 -3 10 -2 10 4 0 5 -4 13 -10 16 -5
3 -10 2 -10 -4z"/>
<path d="M670 1027 c0 -23 8 -41 25 -57 14 -13 25 -29 25 -36 0 -10 6 -10 28
2 15 8 39 12 55 8 15 -3 27 -3 27 -1 0 3 -11 28 -25 55 -15 31 -33 52 -47 56
-34 9 -41 7 -35 -8 4 -10 0 -12 -14 -9 -10 3 -19 9 -19 14 0 5 -4 9 -10 9 -5
0 -10 -15 -10 -33z"/>
<path d="M868 1051 c-11 -4 -14 -11 -9 -19 6 -10 10 -10 21 3 15 19 11 25 -12
16z"/>
<path d="M919 1031 c-41 -41 -40 -63 2 -41 24 13 25 3 2 -23 -17 -19 -17 -20
0 -14 11 4 16 3 12 -3 -3 -5 -1 -18 4 -29 12 -22 46 -18 55 5 8 20 -5 104 -15
104 -5 0 -6 7 -3 15 10 26 -26 17 -57 -14z"/>
<path d="M1230 1051 c0 -5 5 -13 10 -16 6 -3 10 -2 10 4 0 5 -4 13 -10 16 -5
3 -10 2 -10 -4z"/>
<path d="M1039 1048 c-8 -27 -5 -38 12 -38 10 0 19 5 19 10 0 6 -8 10 -17 10
-15 0 -16 2 -3 10 10 6 11 10 3 10 -7 0 -13 -1 -14 -2z"/>
<path d="M1043 964 c-3 -8 -3 -25 -1 -39 3 -13 1 -22 -3 -19 -5 3 -9 -2 -9
-10 0 -20 13 -27 29 -16 8 4 10 13 6 20 -5 8 -4 11 2 7 11 -7 36 40 28 53 -10
15 -46 19 -52 4z"/>
<path d="M1137 973 c-3 -3 5 -17 18 -31 27 -29 43 -25 23 7 -13 22 -33 33 -41
24z"/>
<path d="M680 928 c0 -15 5 -30 11 -33 18 -12 20 1 4 31 l-15 29 0 -27z"/>
<path d="M439 919 c-12 -22 -10 -25 34 -50 16 -9 17 -7 11 18 -10 46 -13 53
-23 53 -6 0 -15 -10 -22 -21z"/>
<path d="M1096 912 c-7 -12 22 -38 31 -28 4 3 0 14 -9 22 -9 10 -18 12 -22 6z"/>
<path d="M1260 890 c-6 -11 -17 -20 -24 -20 -8 0 -17 -11 -20 -25 -4 -14 -10
-24 -15 -21 -11 7 -7 -82 5 -93 5 -5 17 -1 27 9 16 16 16 19 2 33 -14 14 -13
17 5 30 12 8 24 33 29 60 9 51 7 57 -9 27z"/>
<path d="M610 840 c0 -5 7 -10 16 -10 8 0 12 5 9 10 -3 6 -10 10 -16 10 -5 0
-9 -4 -9 -10z"/>
<path d="M1093 820 c1 -11 5 -20 9 -20 4 0 8 9 8 20 0 11 -4 20 -9 20 -6 0 -9
-9 -8 -20z"/>
<path d="M853 795 c0 -8 4 -15 9 -15 4 0 8 4 8 9 0 6 -4 12 -8 15 -5 3 -9 -1
-9 -9z"/>
<path d="M960 779 c10 -18 -16 -49 -41 -49 -8 0 -20 -12 -26 -27 -11 -28 -11
-28 -18 -5 -4 12 -12 22 -17 22 -5 0 -6 -4 -3 -10 11 -18 -6 -32 -23 -18 -14
11 -15 10 -9 -5 4 -10 7 -21 7 -23 0 -10 64 -3 89 10 34 18 56 50 64 93 5 27
3 31 -13 30 -14 -1 -16 -5 -10 -18z"/>
<path d="M731 782 c-2 -25 27 -80 50 -96 27 -18 43 -21 33 -5 -3 6 -6 30 -7
52 l0 42 -11 -37 c-12 -40 -34 -40 -31 -1 1 12 -2 20 -7 17 -4 -3 -12 5 -17
18 -6 13 -10 17 -10 10z"/>
<path d="M1060 769 c0 -5 5 -7 10 -4 6 3 10 8 10 11 0 2 -4 4 -10 4 -5 0 -10
-5 -10 -11z"/>
<path d="M1000 756 c-6 -9 -10 -21 -8 -28 3 -8 9 -4 17 10 15 28 9 39 -9 18z"/>
<path d="M690 740 c0 -5 5 -10 10 -10 6 0 10 5 10 10 0 6 -4 10 -10 10 -5 0
-10 -4 -10 -10z"/>
<path d="M1170 705 c-6 -8 -10 -19 -8 -26 2 -6 9 0 16 15 13 29 10 33 -8 11z"/>
<path d="M1655 650 c-3 -5 -1 -10 4 -10 6 0 11 5 11 10 0 6 -2 10 -4 10 -3 0
-8 -4 -11 -10z"/>
<path d="M1706 593 c-6 -14 -5 -15 5 -6 7 7 10 15 7 18 -3 3 -9 -2 -12 -12z"/>
</g>
</svg>
